<svg width="31" height="32" viewBox="0 0 31 32" fill="none" xmlns="http://www.w3.org/2000/svg">
<path d="M0 4.36364L31 0V27.6364L5.71053 32L0 4.36364Z" fill="white"/>
<path d="M21.146 10.876H28.12V12.372H21.146V10.876ZM21.894 6.52L23.302 6.806C22.554 10.788 21.322 14.77 19.76 17.41C19.518 17.146 18.924 16.618 18.594 16.398C20.134 13.978 21.234 10.238 21.894 6.52ZM25.018 11.778L26.492 11.91C25.634 19.456 23.566 24.032 18.264 26.804C18.11 26.474 17.67 25.836 17.406 25.55C22.444 23.152 24.314 18.774 25.018 11.778ZM21.784 12.416C22.62 18.29 24.468 23.306 28.296 25.396C27.944 25.682 27.46 26.254 27.218 26.672C23.28 24.23 21.498 19.016 20.574 12.592L21.784 12.416ZM13.116 6.52H14.436V18.07H13.116V6.52ZM10.762 9.116V12.856H16.944V9.116H10.762ZM9.464 7.95H18.308V14H9.464V7.95ZM10.366 16.024V17.498H17.296V16.024H10.366ZM8.958 14.968H18.748V18.554H8.958V14.968ZM7.946 10.238H10.014V10.304H17.362V10.238H19.562V11.514H17.362V11.448H10.014V11.514H7.946V10.238ZM9.464 23.13C10.498 21.766 11.774 19.676 12.478 17.96L13.864 18.268C13.094 20.05 11.818 22.118 10.894 23.394L9.464 23.13ZM9.464 23.13L10.564 22.206C13.116 22.888 16.284 24.208 18.066 25.198L16.988 26.188C15.272 25.154 12.082 23.812 9.464 23.13ZM15.8 19.082H17.164V19.852C17.164 22.118 16.35 25.132 8.518 26.738C8.386 26.43 8.056 25.924 7.792 25.638C15.184 24.186 15.8 21.568 15.8 19.808V19.082ZM7.968 19.962H19.386V21.172H7.968V19.962Z" fill="#6A4217"/>
</svg>
