<svg width="45" height="45" viewBox="0 0 41 37" fill="none" xmlns="http://www.w3.org/2000/svg">
<path d="M0 4.70588L38.8133 1L41 37H9.29333L0 4.70588Z" fill="#E2CA9E"/>
<path d="M13.276 9.59H20.738V25.294H13.276V23.032H18.45V11.826H13.276V9.59ZM13.302 16.22H19.386V18.43H13.302V16.22ZM24.326 9.148H32.75V11.436H24.326V9.148ZM24.326 15.414H32.75V17.65H24.326V15.414ZM24.222 21.706H32.698V23.916H24.222V21.706ZM11.95 9.59H14.238V27.66H11.95V9.59ZM31.84 9.148H34.284V29.194C34.284 30.598 33.946 31.3 33.036 31.716C32.126 32.106 30.67 32.158 28.434 32.158C28.33 31.482 27.94 30.416 27.576 29.766C29.136 29.844 30.748 29.818 31.19 29.792C31.658 29.792 31.84 29.636 31.84 29.168V9.148ZM22.87 9.148H25.288V18.508C25.288 22.928 24.612 28.83 19.88 32.392C19.516 31.898 18.58 31.04 18.06 30.728C22.454 27.426 22.87 22.486 22.87 18.482V9.148Z" fill="#464646"/>
</svg>
