<svg width="45" height="45" viewBox="0 0 43 40" fill="none" xmlns="http://www.w3.org/2000/svg">
<path d="M4 4.5L40 0L42.5 37L0 40L4 4.5Z" fill="#E2CA9E"/>
<path d="M10.56 14.242H19.946V16.426H10.56V14.242ZM10.066 20.274H20.414V22.51H10.066V20.274ZM14.148 10.316H16.462V19.494C16.462 24.2 15.968 30.258 11.496 33.898C11.158 33.378 10.378 32.546 9.832 32.104C13.914 29.062 14.148 23.498 14.148 19.494V10.316ZM16.046 23.446C16.93 24.252 19.946 27.684 20.622 28.49L18.958 30.284C18.022 28.828 15.604 25.812 14.538 24.616L16.046 23.446ZM23.586 17.336V19.442H30.268V17.336H23.586ZM23.586 21.418V23.576H30.268V21.418H23.586ZM23.586 13.228V15.334H30.268V13.228H23.586ZM21.298 11.044H32.634V25.76H21.298V11.044ZM27.408 24.902H29.696V30.83C29.696 31.48 29.748 31.558 30.242 31.558C30.424 31.558 31.308 31.558 31.568 31.558C32.062 31.558 32.166 31.194 32.218 28.256C32.686 28.646 33.648 29.01 34.272 29.192C34.064 32.806 33.492 33.716 31.802 33.716C31.412 33.716 30.242 33.716 29.852 33.716C27.824 33.716 27.408 33.014 27.408 30.856V24.902ZM23.248 25.318H25.588C25.12 29.452 23.95 32.494 19.296 34.184C19.036 33.638 18.412 32.78 17.918 32.364C22.026 31.012 22.884 28.568 23.248 25.318Z" fill="#464646"/>
</svg>
