<svg width="516" height="521" viewBox="0 0 516 521" fill="none" xmlns="http://www.w3.org/2000/svg">
<g clip-path="url(#clip0_566_4081)">
<path d="M305.373 13.3745L295.227 20.4409C295.227 20.4409 285.406 28.5812 283.953 31.0406C282.5 33.5 288.406 37.7141 283.953 38.107C279.5 38.5 259.039 43.8469 255.769 45.1735C252.5 46.5 239.954 53.7572 235.477 58.1286C231 62.5 220.633 71.9449 218.566 76.9724C216.5 82 213.859 91.277 212.93 94.6385C212 98 217.859 106.043 212.93 108.771C208 111.5 189.756 119.519 188.128 125.26C186.5 131 177.982 152.348 177.982 152.348L165.581 178.258C165.581 178.258 149.586 205.614 147.543 210.057C145.5 214.5 131.765 242.278 130.633 245.389C129.5 248.5 119.359 261.821 119.359 265.411C119.359 269 119.359 293.676 119.359 293.676C119.359 293.676 123.718 310.752 119.359 314.876C115 319 109.107 320.012 109.213 329C109.213 329 109.213 343 109.213 339.608" stroke="#8A5D3B" stroke-width="7"/>
<path d="M109 338.5C109 338.5 114.65 356.214 122.741 366.696L130.633 378.474C130.633 378.474 142.822 394.346 144.161 399.673C145.5 405 140.822 410.112 144.161 413.806C147.5 417.5 153.888 432.155 159.944 433.827C166 435.5 176.854 442.072 176.854 442.072C176.854 442.072 187.878 445.919 193.765 450.316C202.541 456.87 210.675 472.693 210.675 472.693C210.675 472.693 214.124 483.651 216.312 486.826C218.5 490 215.797 505.997 225.331 513.914C229.644 516.013 230.5 506 230.967 508.025C231.435 510.05 231.433 515.535 239.986 513.914C250.042 506.134 246.234 498.407 245.623 486.826C245.623 486.826 241 447 240.5 441C240 435 257.5 403 259.5 401C261.5 399 279 379.5 281.699 378.474C284.397 377.447 281.699 369 281.699 366.696C281.699 364.392 303.5 343.5 306.5 340.786C309.501 338.072 306.5 305.5 306.5 301.921C306.5 298.341 313.265 268.944 313.265 268.944C313.265 268.944 321.5 219.5 322.283 214.768C323.067 210.036 329.048 197 329.048 191.213C329.048 185.426 329.048 177.5 329.048 173.547C329.048 169.594 342.5 157 344.831 153.525C347.161 150.051 353.849 117.5 353.849 113.482C353.849 109.465 346 101 344.831 95.8162C343.661 90.6325 352.5 69 353.849 65.195C355.199 61.39 362.991 68.39 363.996 65.195C365 62 363.996 58.5 363.996 55.7731C363.996 53.0462 355.699 44.8469 353.849 45.1734C352 45.5 331.5 34 329.048 32.2183C326.595 30.4366 316.5 27 313.265 25.1519C310.029 23.3038 311.764 9.12524 305 13.4998" stroke="#8A5D3B" stroke-width="7"/>
<path d="M214.058 108.772L245.624 121.727L267.043 134.682V147.637H280.572L304.246 158.237H327.921L343.704 147.637" stroke="#8A5D3B" stroke-width="7"/>
<path d="M117.104 290.144C117.104 290.144 129.5 292.5 134.014 290.144C138.528 287.787 160 270 163.326 268.944C166.651 267.889 182.5 278.366 188.128 278.366C193.755 278.366 197.196 279.606 202.783 278.366C210.164 276.729 215.887 267.389 219.694 268.944C223.5 270.5 230.953 290.144 235.477 290.144C240 290.144 244.5 292.5 249.005 290.144C253.509 287.787 269.5 267 272.679 263.056C275.858 259.111 271.5 244.5 272.679 238.323C273.858 232.146 278 220.5 279.443 212.413C280.886 204.326 279.443 194 279.443 190.036C279.443 186.072 286 190.036 289.59 190.036C293.179 190.036 281.5 172 279.443 168.836C277.386 165.673 296.354 153.526 296.354 153.526" stroke="#8A5D3B" stroke-width="7"/>
<path d="M246.5 289C246.5 289 248.764 295.275 250.132 298.388C251.5 301.5 251.5 305.5 250.132 308.987C248.764 312.475 235.476 316.53 235.476 320.765C235.476 325 227.424 366.46 228.712 370.23C230 374 235.476 385.54 235.476 385.54C242.391 394.682 242.564 398.394 235.476 402.029C226.944 402.128 223.409 403.081 223.075 409.095C221.355 416.304 224.907 423.444 223.075 431.472C221.243 439.5 221.651 447.277 223.075 449.138C224.499 451 225.924 453.554 228.712 455.027C231.5 456.5 244.495 464.449 244.495 464.449" stroke="#8A5D3B" stroke-width="7"/>
<path d="M44.0212 130.862C44.779 127.042 38.1312 123.11 33.5073 124.178C27.6546 125.53 28.5959 133.454 27.8241 140.092C27.4229 143.543 24.3195 150.383 27.8241 149.004C31.3288 147.625 40.043 143.593 40.043 143.593C40.043 143.593 43.2635 134.681 44.0212 130.862Z" stroke="#8A5D3B" stroke-width="4"/>
<path d="M65.049 149.004C59.5439 148.116 54.2904 150.727 52.546 156.643C51.7456 159.357 52.546 163.963 52.546 163.963C52.546 166.934 48.8882 173.878 52.546 176.694C56.5163 179.752 60.0289 172.557 63.3441 170.01C66.6593 167.464 70.6762 171.391 73.858 168.419C79.6892 162.971 72.5648 150.216 65.049 149.004Z" stroke="#8A5D3B" stroke-width="4"/>
<path d="M27.8241 191.335C25.8915 188.783 28.0604 185.017 30.6657 183.378C32.6977 182.1 34.5372 182.237 36.6331 183.378C39.8579 185.134 42.3538 189.856 40.043 192.927C38.0405 195.588 35.128 193.638 32.0865 192.927C30.369 192.525 28.959 192.834 27.8241 191.335Z" stroke="#8A5D3B" stroke-width="4"/>
<path d="M21.0043 211.069C20.8733 206.487 23.7357 202.358 27.8241 202.157C32.9814 201.903 32.655 213.933 33.5073 215.524C34.3597 217.116 28.6704 219.911 25.5509 218.707C22.5245 217.54 21.1068 214.652 21.0043 211.069Z" stroke="#8A5D3B" stroke-width="4"/>
<path d="M41.4638 213.933C38.3596 210.722 41.8427 199.186 44.0212 202.157C46.1998 205.127 51.1251 208.204 50.2727 211.069C49.4204 213.933 44.0212 215.524 44.0212 215.524C42.0321 217.01 42.3031 214.801 41.4638 213.933Z" stroke="#8A5D3B" stroke-width="4"/>
</g>
<defs>
<clipPath id="clip0_566_4081">
<rect width="516" height="521" fill="white"/>
</clipPath>
</defs>
</svg>
