<svg width="29" height="27" viewBox="0 0 29 27" fill="none" xmlns="http://www.w3.org/2000/svg">
<path d="M0 0H29L25.1842 27L0 21.6V0Z" fill="white"/>
<path d="M16.288 1.806H17.938V21.76H16.288V1.806ZM12.482 2.642L14.066 2.95C13.472 6.03 12.46 9.044 11.206 11.002C10.876 10.76 10.194 10.364 9.776 10.188C11.052 8.34 11.976 5.502 12.482 2.642ZM12.702 6.03H22.976V7.658H12.284L12.702 6.03ZM9.952 12.498H23.944V14.126H9.952V12.498ZM8.874 1.608L10.436 2.092C9.05 5.81 6.916 9.528 4.628 12.014C4.474 11.64 3.99 10.782 3.682 10.386C5.75 8.252 7.708 4.952 8.874 1.608ZM6.652 7.284L8.214 5.722L8.236 5.744V21.738H6.652V7.284Z" fill="#6A4217"/>
</svg>
