<svg width="45" height="45" viewBox="0 0 37 40" fill="none" xmlns="http://www.w3.org/2000/svg">
<path d="M32.5 1L37 37L0 39.5V1H32.5Z" fill="#E2CA9E"/>
<path d="M18.21 11.202H20.602V25.762H18.21V11.202ZM24.476 8.576H26.92V29.09C26.92 30.65 26.556 31.352 25.646 31.768C24.684 32.158 23.098 32.236 20.706 32.21C20.576 31.534 20.186 30.416 19.822 29.714C21.616 29.766 23.254 29.766 23.8 29.74C24.294 29.74 24.476 29.584 24.476 29.09V8.576ZM7.16 26.23L9.578 26.88C8.694 28.908 7.212 30.962 5.808 32.262C5.366 31.82 4.352 31.092 3.754 30.78C5.132 29.636 6.432 27.92 7.16 26.23ZM11.554 27.14L13.686 26.256C14.856 27.608 16.078 29.454 16.65 30.728L14.388 31.82C13.894 30.52 12.698 28.57 11.554 27.14ZM7.706 15.986V18.742H13.296V15.986H7.706ZM7.706 20.718V23.5H13.296V20.718H7.706ZM7.706 11.254V14.01H13.296V11.254H7.706ZM5.392 9.07H15.74V25.71H5.392V9.07Z" fill="#464646"/>
</svg>
