<svg width="32" height="32" viewBox="0 0 32 32" fill="none" xmlns="http://www.w3.org/2000/svg">
<path d="M5.05263 0L32 8.18605V32H0L5.05263 0Z" fill="white"/>
<path d="M8.606 9.302H27.372V13.196H25.788V10.732H10.146V13.196H8.606V9.302ZM11.004 12.514H24.974V13.856H11.004V12.514ZM17.362 11.282H18.924C18.44 15.176 16.878 17.068 10.96 17.97C10.828 17.596 10.476 17.024 10.212 16.716C15.668 15.99 16.966 14.494 17.362 11.282ZM16.636 15.11L17.45 14.076C20.002 14.692 23.346 15.858 25.106 16.804L24.27 17.992C22.576 17.024 19.254 15.814 16.636 15.11ZM8.254 17.794H27.746V19.268H8.254V17.794ZM22.994 18.74H24.6V25.912C24.6 26.836 24.402 27.276 23.698 27.518C23.016 27.76 21.85 27.76 20.134 27.76C20.046 27.32 19.804 26.704 19.606 26.242C20.948 26.286 22.158 26.286 22.532 26.286C22.884 26.242 22.994 26.176 22.994 25.868V18.74ZM10.916 20.632H12.456V26.616H10.916V20.632ZM11.928 20.632H19.848V25.494H11.928V24.196H18.286V21.93H11.928V20.632ZM16.812 7.762L18.418 7.41C18.814 8.092 19.122 9.06 19.232 9.698L17.538 10.094C17.472 9.456 17.142 8.488 16.812 7.762Z" fill="#6A4217"/>
</svg>
