<svg width="20" height="20" viewBox="0 0 20 20" fill="none" xmlns="http://www.w3.org/2000/svg">
<path d="M1 4L15.5 0.5L20 20H1V4Z" fill="white"/>
<path d="M8.776 6.92H9.592V11.996C9.592 14.396 9.316 16.508 7.144 17.972C7 17.792 6.7 17.516 6.496 17.372C8.524 16.04 8.776 14.156 8.776 11.996V6.92ZM10.84 6.92H11.704V17.948H10.84V6.92ZM6.808 8.972H9.136V9.8H6.808V8.972ZM11.296 8.972H13.804V9.8H11.296V8.972ZM11.344 11.492H13.684V12.296H11.344V11.492ZM11.284 14.108H14.008V14.936H11.284V14.108ZM6.892 11.492H9.172V12.296H6.892V11.492ZM6.208 14.624C6.904 14.432 7.864 14.12 8.848 13.808L8.98 14.504C8.152 14.828 7.3 15.14 6.556 15.404L6.208 14.624ZM2.824 13.148C3.76 12.884 5.164 12.452 6.532 12.008L6.652 12.836C5.404 13.268 4.084 13.7 3.064 14.024L2.824 13.148ZM2.992 9.344H6.64V10.184H2.992V9.344ZM4.504 6.932H5.344V16.916C5.344 17.42 5.224 17.66 4.924 17.804C4.648 17.948 4.18 17.972 3.424 17.972C3.388 17.756 3.28 17.384 3.16 17.132C3.688 17.144 4.144 17.144 4.288 17.132C4.432 17.132 4.504 17.096 4.504 16.916V6.932Z" fill="#6A4217"/>
</svg>
