<svg width="22" height="19" viewBox="0 0 22 19" fill="none" xmlns="http://www.w3.org/2000/svg">
<path d="M22 19L0.5 16V0H19.5L22 19Z" fill="white"/>
<path d="M8.572 5.06H15.136V5.804H8.572V5.06ZM8.584 9.668H15.148V10.436H8.584V9.668ZM9.784 6.02L10.576 5.876C10.768 6.332 10.96 6.932 11.032 7.28L10.192 7.484C10.132 7.1 9.964 6.476 9.784 6.02ZM13.264 5.804L14.152 5.972C13.9 6.596 13.612 7.28 13.372 7.736L12.604 7.568C12.844 7.088 13.12 6.32 13.264 5.804ZM8.416 7.352H15.352V9.26H14.5V8.084H9.244V9.272H8.416V7.352ZM10.552 11.564H13.984V12.32H10.552V11.564ZM13.696 11.564H14.572C14.572 11.564 14.56 11.804 14.548 11.924C14.404 13.628 14.248 14.348 13.972 14.648C13.768 14.84 13.552 14.9 13.24 14.924C12.952 14.948 12.412 14.948 11.848 14.912C11.836 14.684 11.74 14.36 11.62 14.144C12.148 14.204 12.664 14.204 12.856 14.204C13.06 14.204 13.156 14.192 13.252 14.096C13.432 13.916 13.576 13.28 13.696 11.684V11.564ZM10.432 9.908H11.296C11.164 12.368 10.72 14.06 8.548 14.972C8.452 14.78 8.212 14.468 8.032 14.312C9.988 13.532 10.312 12.068 10.432 9.908ZM11.284 3.968L12.112 3.86C12.304 4.352 12.46 4.988 12.508 5.384L11.632 5.528C11.596 5.132 11.452 4.472 11.284 3.968ZM11.248 8.516L12.088 8.384C12.268 8.828 12.436 9.416 12.496 9.764L11.62 9.944C11.56 9.56 11.404 8.972 11.248 8.516ZM4.564 6.248H8.164V7.076H4.564V6.248ZM6.124 3.92H6.904V14.948H6.124V3.92ZM6.064 6.788L6.592 6.968C6.268 8.9 5.548 11.3 4.78 12.524C4.684 12.26 4.468 11.864 4.312 11.648C5.056 10.568 5.776 8.468 6.064 6.788ZM6.88 7.484C7.108 7.832 7.996 9.404 8.188 9.776L7.648 10.412C7.432 9.8 6.748 8.324 6.46 7.832L6.88 7.484Z" fill="#6A4217"/>
</svg>
