<svg width="30" height="27" viewBox="0 0 30 27" fill="none" xmlns="http://www.w3.org/2000/svg">
<path d="M0 0L28.5 1.38462L30 27L0 23.5385V0Z" fill="white"/>
<path d="M10.594 12.386L11.782 12.056C12.376 13.442 12.992 15.224 13.19 16.302L11.936 16.72C11.716 15.62 11.166 13.772 10.594 12.386ZM8.636 17.908L9.824 17.644C10.088 19.14 10.352 21.054 10.418 22.352L9.208 22.616C9.142 21.34 8.9 19.382 8.636 17.908ZM6.612 17.688L7.866 17.908C7.58 19.8 7.096 21.868 6.59 23.232C6.326 23.078 5.71 22.88 5.38 22.792C5.974 21.428 6.348 19.47 6.612 17.688ZM5.798 11.77C5.71 11.44 5.468 10.692 5.27 10.296C5.644 10.208 6.018 9.746 6.414 9.064C6.854 8.426 8.262 5.874 9.032 3.498L10.506 4.114C9.516 6.556 8.13 9.13 6.788 10.89V10.934C6.788 10.934 5.798 11.44 5.798 11.77ZM5.798 11.77L5.754 10.626L6.524 10.142L10.264 9.812C10.198 10.186 10.132 10.758 10.154 11.066C6.722 11.462 6.128 11.594 5.798 11.77ZM5.93 16.764C5.864 16.456 5.622 15.73 5.446 15.334C5.886 15.224 6.37 14.652 7.03 13.838C7.69 13.024 9.934 9.834 11.298 6.842L12.684 7.546C11.034 10.626 8.944 13.75 6.898 15.95V15.972C6.898 15.972 5.93 16.456 5.93 16.764ZM5.93 16.764L5.864 15.576L6.612 15.07L12.178 14.124C12.112 14.498 12.134 15.07 12.156 15.356C7.03 16.346 6.37 16.522 5.93 16.764ZM10.66 17.49L11.782 17.182C12.178 18.392 12.618 19.932 12.794 20.966L11.606 21.296C11.452 20.262 11.034 18.7 10.66 17.49ZM22.562 17.864L23.728 17.38C24.432 18.766 25.268 20.548 25.686 21.692L24.432 22.242C24.058 21.076 23.222 19.25 22.562 17.864ZM15.698 17.49H17.128V21.384C17.128 21.912 17.26 22 18.096 22C18.492 22 20.494 22 21.022 22C21.726 22 21.858 21.714 21.946 19.69C22.232 19.932 22.782 20.108 23.2 20.218C23.024 22.638 22.628 23.232 21.154 23.232C20.78 23.232 18.338 23.232 17.964 23.232C16.16 23.232 15.698 22.858 15.698 21.384V17.49ZM14.114 17.49L15.302 17.908C14.972 19.382 14.466 21.384 13.828 22.638L12.596 22.044C13.256 20.856 13.828 18.92 14.114 17.49ZM17.964 3.388L19.636 3.718C19.196 4.642 18.712 5.588 18.316 6.226L17.04 5.896C17.348 5.17 17.766 4.114 17.964 3.388ZM19.46 7.304L20.604 7.48C19.79 8.998 18.536 10.582 16.666 11.858C16.512 11.616 16.16 11.242 15.896 11.088C17.612 9.988 18.822 8.514 19.46 7.304ZM16.468 8.272L17.392 7.656C19.35 9.24 21.572 11.572 22.562 13.068L21.594 13.794C20.582 12.21 18.382 9.856 16.468 8.272ZM21.55 8.514L22.694 8.712C21.638 10.604 19.944 12.672 17.502 14.278C17.326 14.014 16.996 13.662 16.754 13.486C19.042 12.078 20.692 10.098 21.55 8.514ZM15.61 6.996V14.498H23.002V6.996H15.61ZM14.136 5.632H24.52V15.906H14.136V5.632ZM18.294 16.764L19.394 16.214C20.12 17.314 21.066 18.788 21.528 19.646L20.384 20.306C19.944 19.404 19.042 17.886 18.294 16.764Z" fill="#6A4217"/>
</svg>
