<svg width="22" height="19" viewBox="0 0 22 19" fill="none" xmlns="http://www.w3.org/2000/svg">
<path d="M0.5 0L22 3V19H3L0.5 0Z" fill="white"/>
<path d="M11.72 6.652H17.612V7.516H11.72V6.652ZM15.224 10.228H16.136V15.808C16.136 16.372 16.004 16.648 15.596 16.792C15.188 16.924 14.504 16.936 13.328 16.936C13.292 16.684 13.172 16.312 13.04 16.048C13.892 16.072 14.696 16.072 14.912 16.06C15.152 16.048 15.224 16 15.224 15.796V10.228ZM11.192 9.964H17.96V10.816H11.192V9.964ZM8.792 10.888L9.584 10.108L9.692 10.156V16.996H8.792V10.888ZM10.184 8.488L11.036 8.812C10.1 10.336 8.684 11.884 7.424 12.892C7.292 12.712 6.98 12.316 6.788 12.148C8.036 11.26 9.356 9.868 10.184 8.488ZM9.692 5.92L10.556 6.268C9.752 7.324 8.516 8.488 7.448 9.256C7.316 9.064 7.076 8.716 6.92 8.536C7.916 7.864 9.08 6.784 9.692 5.92Z" fill="#6A4217"/>
</svg>
