<svg width="45" height="45" viewBox="0 0 42 39" fill="none" xmlns="http://www.w3.org/2000/svg">
<path d="M3.95294 0L37.0588 6.59155L42 35.7042L0 39L3.95294 0Z" fill="#E2CA9E"/>
<path d="M8.976 16.96H16.23V18.858H8.976V16.96ZM8.976 20.418H16.23V22.316H8.976V20.418ZM7.936 13.424H17.14V15.426H7.936V13.424ZM9.938 23.954H16.49V31.676H9.938V29.674H14.436V25.956H9.938V23.954ZM8.924 23.954H11.082V32.846H8.924V23.954ZM10.666 9.888L12.746 9.212C13.37 10.278 14.02 11.682 14.306 12.618L12.148 13.424C11.888 12.462 11.238 10.98 10.666 9.888ZM21.17 23.616H23.562C23.198 27.958 22.262 31.39 18.076 33.314C17.79 32.742 17.114 31.884 16.62 31.442C20.208 29.908 20.884 27.1 21.17 23.616ZM25.226 23.018H27.618V29.856C27.618 30.532 27.696 30.636 28.138 30.636C28.346 30.636 29.178 30.636 29.412 30.636C29.906 30.636 30.01 30.272 30.062 27.646C30.53 28.062 31.544 28.452 32.194 28.608C31.96 31.988 31.362 32.872 29.724 32.872C29.308 32.872 28.138 32.872 27.722 32.872C25.694 32.872 25.226 32.144 25.226 29.856V23.018ZM21.482 18.26V21.9H27.046V18.26H21.482ZM19.142 16.076H29.464V24.084H19.142V16.076ZM21.118 9.394L23.406 10.096C22.106 13.008 20.026 15.92 18.024 17.792C17.66 17.324 16.75 16.466 16.23 16.05C18.18 14.438 20.026 11.942 21.118 9.394ZM24.914 10.304L26.656 9.16C28.684 11.292 31.128 14.23 32.168 16.18L30.296 17.532C29.282 15.582 26.942 12.514 24.914 10.304Z" fill="#464646"/>
</svg>
